<?xml version="1.0" encoding="utf-8"?>
<!-- Generator: Adobe Illustrator 19.1.0, SVG Export Plug-In . SVG Version: 6.00 Build 0)  -->
<!DOCTYPE svg PUBLIC "-//W3C//DTD SVG 1.1//EN" "http://www.w3.org/Graphics/SVG/1.1/DTD/svg11.dtd">
<svg version="1.1" id="Layer_1" xmlns="http://www.w3.org/2000/svg" xmlns:xlink="http://www.w3.org/1999/xlink" x="0px" y="0px"
	 viewBox="0 0 464.6 48" enable-background="new 0 0 464.6 48" xml:space="preserve">
<g>
	<path d="M32.1,40c0,4.4-3.5,7.9-7.9,7.9H7.9C3.5,48,0,44.4,0,40v-6.4h10.2v4.1c0,0.4,0.3,0.7,0.7,0.7H21c0.4,0,0.7-0.3,0.7-0.7V31
		c0-0.5-0.4-0.8-0.9-0.9c-1.2-0.4-5-1.4-14-4c-4.2-1.2-6.7-3.1-6.7-7.5V7.9C0.1,3.5,3.7,0,8.1,0h15.8c4.4,0,7.9,3.5,7.9,7.9v6.3
		H21.6v-4c0-0.4-0.3-0.7-0.7-0.7h-9.6c-0.4,0-0.7,0.3-0.7,0.7v6.2c0,0.6,0.4,0.8,0.8,0.9c0.7,0.2,4.8,1.4,14.3,4
		c4.1,1.2,6.5,3.1,6.5,7.5V40z"/>
	<path d="M37.9,0h35.2v9.5H60.7V48H50.3V9.5H37.9V0z"/>
	<path d="M113.5,48h-10.7l-3-9.5H85L82.2,48H71.5L87.2,0h10.5L113.5,48z M88.1,29.2h8.6l-4.3-16L88.1,29.2z"/>
	<path d="M137.4,30.3h-7.1V48h-10.4V0h26.6c4.4,0,7.9,3.5,7.9,7.9v14.5c0,3.6-2.4,6.6-5.7,7.6l8.5,17.9h-11.4L137.4,30.3z
		 M130.2,9.5v11.3h13c0.4,0,0.7-0.3,0.7-0.7v-9.9c0-0.4-0.3-0.7-0.7-0.7H130.2z"/>
	<path d="M161.1,0h35.2v9.5H184V48h-10.4V9.5h-12.4V0z"/>
	<path d="M213.3,22.8V48h-10.1V0h10.1l12,28.7l12-28.7h10.1v48h-10.1V22.8l-7.6,17.8h-8.8L213.3,22.8z"/>
	<path d="M295.7,48H285l-3-9.5h-14.8l-2.9,9.5h-10.7l15.7-48h10.5L295.7,48z M270.4,29.2h8.6l-4.3-16L270.4,29.2z"/>
	<path d="M319.6,30.3h-7.1V48H302V0h26.6c4.4,0,7.9,3.5,7.9,7.9v14.5c0,3.6-2.4,6.6-5.7,7.6l8.5,17.9H328L319.6,30.3z M312.5,9.5
		v11.3h13c0.4,0,0.7-0.3,0.7-0.7v-9.9c0-0.4-0.3-0.7-0.7-0.7H312.5z"/>
	<path d="M346.6,0H357v22.3l13-22.3h12l-14.3,24L383,48h-12.3L357,25.6V48h-10.4V0z"/>
	<path d="M388.7,0h29.8v9.5h-19.4v9.1H417v9.5h-17.9v10.3h19.4V48h-29.9V0z"/>
	<path d="M444.8,30.3h-7.1V48h-10.4V0h26.6c4.4,0,7.9,3.5,7.9,7.9v14.5c0,3.6-2.4,6.6-5.7,7.6l8.5,17.9h-11.4L444.8,30.3z
		 M437.7,9.5v11.3h13c0.4,0,0.7-0.3,0.7-0.7v-9.9c0-0.4-0.3-0.7-0.7-0.7H437.7z"/>
</g>
</svg>
